# Blender 4.1.0
# www.blender.org
mtllib scene.mtl
o Cube
v 1.000000 1.000000 -1.000000
v 1.000000 -1.000000 -1.000000
v 1.000000 1.000000 1.000000
v 1.000000 -1.000000 1.000000
v -1.000000 1.000000 -1.000000
v -1.000000 -1.000000 -1.000000
v -1.000000 1.000000 1.000000
v -1.000000 -1.000000 1.000000
vn -0.0000 1.0000 -0.0000
vn -0.0000 -0.0000 1.0000
vn -1.0000 -0.0000 -0.0000
vn -0.0000 -1.0000 -0.0000
vn 1.0000 -0.0000 -0.0000
vn -0.0000 -0.0000 -1.0000
vt 0.217560 0.179688
vt 0.163666 0.233581
vt 0.163666 0.179688
vt 0.109772 0.287475
vt 0.109772 0.233581
vt 0.163666 0.071900
vt 0.109772 0.125794
vt 0.109772 0.071900
vt 0.109772 0.179688
vt 0.055878 0.233581
vt 0.055878 0.179688
vt 0.163666 0.125794
vt 0.217560 0.233581
vt 0.163666 0.287475
s 0
usemtl Material
f 5/1/1 3/2/1 1/3/1
f 3/2/2 8/4/2 4/5/2
f 7/6/3 6/7/3 8/8/3
f 2/9/4 8/10/4 6/11/4
f 1/3/5 4/5/5 2/9/5
f 5/12/6 2/9/6 6/7/6
f 5/1/1 7/13/1 3/2/1
f 3/2/2 7/14/2 8/4/2
f 7/6/3 5/12/3 6/7/3
f 2/9/4 4/5/4 8/10/4
f 1/3/5 3/2/5 4/5/5
f 5/12/6 1/3/6 2/9/6
o Cube.001
v -0.035594 1.179435 -1.446087
v -0.817830 -0.444861 -2.311980
v -1.756030 2.159095 -1.729577
v -2.538265 0.534799 -2.595470
v 0.618782 1.813413 -3.226498
v -0.163453 0.189118 -4.092391
v -1.101653 2.793074 -3.509988
v -1.883889 1.168778 -4.375881
vn 0.3911 0.8121 0.4329
vn -0.8602 0.4898 -0.1417
vn 0.3272 0.3170 -0.8902
vn -0.3911 -0.8121 -0.4329
vn -0.3272 -0.3170 0.8902
vn 0.8602 -0.4898 0.1417
vt 0.580195 0.199219
vt 0.525430 0.253984
vt 0.525430 0.199219
vt 0.470664 0.308750
vt 0.470664 0.253984
vt 0.525430 0.089688
vt 0.470664 0.144453
vt 0.470664 0.089688
vt 0.470664 0.199219
vt 0.415899 0.253984
vt 0.415899 0.199219
vt 0.525430 0.144453
vt 0.580195 0.253984
vt 0.525430 0.308750
s 0
usemtl Material
f 13/15/7 11/16/7 9/17/7
f 11/16/8 16/18/8 12/19/8
f 15/20/9 14/21/9 16/22/9
f 10/23/10 16/24/10 14/25/10
f 9/17/11 12/19/11 10/23/11
f 13/26/12 10/23/12 14/21/12
f 13/15/7 15/27/7 11/16/7
f 11/16/8 15/28/8 16/18/8
f 15/20/9 13/26/9 14/21/9
f 10/23/10 12/19/10 16/24/10
f 9/17/11 11/16/11 12/19/11
f 13/26/12 9/17/12 10/23/12
o Plane.003
v -6.366754 -1.903998 5.060264
v 5.034769 -1.903998 5.060264
v -6.366754 -1.903998 -6.341259
v 5.034769 -1.903998 -6.341259
vn -0.0000 1.0000 -0.0000
vt 0.572082 0.437741
vt 0.427918 0.562259
vt 0.427918 0.437741
vt 0.572082 0.562259
s 0
usemtl Material
f 18/29/13 19/30/13 17/31/13
f 18/29/13 20/32/13 19/30/13
